<?xml version="1.0" encoding="UTF-8" standalone="no"?>
<svg width="287px" height="111px" viewBox="0 0 287 111" version="1.1" xmlns="http://www.w3.org/2000/svg" xmlns:xlink="http://www.w3.org/1999/xlink" xmlns:sketch="http://www.bohemiancoding.com/sketch/ns">
    <!-- Generator: bin/sketchtool 1.4 (305) - http://www.bohemiancoding.com/sketch -->
    <title>FHS Logo@0.5x</title>
    <desc>Created with bin/sketchtool.</desc>
    <defs></defs>
    <g id="Mobile-Portrait" stroke="none" stroke-width="1" fill="none" fill-rule="evenodd" sketch:type="MSPage">
        <g id="Main-Alternate" sketch:type="MSArtboardGroup" transform="translate(-15.000000, -24.000000)">
            <g id="FHS-Logo-Equipment" sketch:type="MSLayerGroup" transform="translate(17.000000, 25.000000)">
                <g id="FHS-Logo" transform="translate(0.000000, 1.000000)" sketch:type="MSShapeGroup">
                    <path d="M141.55003,5.34698753 C192.51794,5.34698753 241.242783,15.2542843 277.821541,32.7416509 L277.821541,97.2414264 L256.413621,101.544264 C253.258349,100.19985 249.899097,98.9032219 246.344424,97.6636509 C218.32213,87.8911521 180.652863,82.492813 141.617786,82.492813 C102.584135,82.492813 64.9134414,87.8911521 36.8918603,97.6636509 C33.320783,98.9089277 29.9472668,100.210549 26.7791571,101.563521 L5.27780549,97.2414264 L5.27780549,32.7416509 C41.8565636,15.2542843 90.5814065,5.34698753 141.55003,5.34698753" id="Fill-1" fill="#005AA7"></path>
                    <path d="M141.55003,0.545610973 C194.323805,0.545610973 244.954364,11.0434514 282.622918,29.7397207 L282.622918,101.174818 L255.88584,106.547481 C252.436723,105.031895 248.725855,103.579072 244.763935,102.196858 C217.387815,92.6504489 180.283416,87.2941895 141.617786,87.2941895 C102.952868,87.2941895 65.8484688,92.6504489 38.4723491,102.196858 C34.4940249,103.585491 30.7688928,105.04402 27.3069377,106.566025 L0.476428928,101.174818 L0.476428928,29.7397207 C38.1449825,11.0434514 88.7748279,0.545610973 141.55003,0.545610973" id="Fill-2" fill="#FFFFFF"></path>
                    <path d="M141.55003,4.0375212 C193.011486,4.0375212 242.254125,14.1052918 279.131007,31.9178853 L279.131007,98.314818 L256.272404,102.909362 C253.035112,101.517162 249.578863,100.178454 245.913641,98.8996559 C218.067511,89.189207 180.550873,83.8022793 141.617786,83.8022793 C102.683985,83.8022793 65.1687731,89.189207 37.3233566,98.8996559 C33.6403042,100.18416 30.1705037,101.528574 26.9203741,102.927192 L3.96833915,98.314818 L3.96833915,31.9178853 C40.8452219,14.1052918 90.0878603,4.0375212 141.55003,4.0375212" id="Fill-3" fill="#0054A6"></path>
                    <path d="M141.55003,0.545610973 C194.323805,0.545610973 244.954364,11.0434514 282.622918,29.7397207 L282.622918,101.174818 L255.88584,106.547481 C252.436723,105.031895 248.725855,103.579072 244.763935,102.196858 C217.387815,92.6504489 180.283416,87.2934763 141.617786,87.2934763 C102.952868,87.2934763 65.8484688,92.6504489 38.4723491,102.196858 C34.4940249,103.585491 30.7688928,105.04402 27.3069377,106.566025 L0.476428928,101.174818 L0.476428928,29.7397207 C38.1449825,11.0434514 88.7748279,0.545610973 141.55003,0.545610973" id="Stroke-4" stroke="#0054A6" stroke-width="4"></path>
                    <path d="M141.430209,51.907217 L152.117052,52.2374364 C155.02983,52.328015 157.194444,52.883611 158.609466,53.9063641 C160.025202,54.9291172 160.73414,56.4418504 160.73414,58.44599 C160.73414,60.0136409 160.164279,61.30599 159.024559,62.3237506 C157.885551,63.3422244 156.301496,63.9641496 154.274534,64.1916658 C156.163845,64.7322843 157.435511,65.4369426 158.093097,66.3035012 C158.749257,67.1707731 159.076623,69.1585087 159.076623,72.2688479 L159.076623,73.6161147 C159.076623,74.2729875 159.165776,74.7586883 159.34408,75.0753566 C159.522384,75.3927382 159.801965,75.5560648 160.181397,75.5681895 C160.607187,75.5810274 160.923142,75.3577905 161.130688,74.8970524 C161.338234,74.4377406 161.441651,73.7409277 161.441651,72.8087531 L161.441651,72.5676858 L162.617032,72.6026334 L162.617032,73.3800399 C162.617032,74.8200249 162.22619,75.8991222 161.441651,76.6180449 C160.658539,77.3369676 159.50812,77.6721796 157.988254,77.6265337 C157.032544,77.5965786 156.233027,77.387606 155.588279,76.999616 C154.943531,76.6109127 154.471382,76.0603092 154.17183,75.3485187 C153.907227,74.6609776 153.763157,73.0897606 153.739621,70.635581 L153.7061,68.7512618 C153.647616,67.0680698 153.366608,65.9525985 152.859511,65.4077007 C152.352414,64.862803 151.409541,64.5689576 150.027327,64.5261646 C149.946733,64.5233117 149.814075,64.5247382 149.630065,64.5311571 C149.446768,64.5368628 149.306978,64.5375761 149.216399,64.5354364 L149.216399,73.8486234 C149.216399,74.6317357 149.346204,75.1737805 149.603676,75.4754713 C149.863287,75.7771621 150.332584,75.9383491 151.012279,75.9590324 L151.374594,75.9704439 L151.374594,77.0238653 L141.430209,76.717182 L141.430209,75.6637606 L141.930175,75.6787382 C142.608444,75.7001347 143.077741,75.5674763 143.335212,75.2814763 C143.596249,74.9961895 143.725342,74.4612768 143.725342,73.6781646 L143.725342,55.105995 C143.725342,54.3107581 143.596249,53.7651471 143.335212,53.4684489 C143.077741,53.1738903 142.608444,53.0148429 141.930175,52.9941596 L141.430209,52.979182 L141.430209,51.907217 L141.430209,51.907217 Z M81.6376658,80.8039152 L80.6263242,80.9294414 L80.6263242,71.306005 L81.8951372,71.148384 C82.4664239,73.863601 83.3971721,75.9290773 84.688808,77.3462394 C85.9804439,78.7641147 87.4724938,79.3660698 89.1635312,79.1556708 C90.3752868,79.0044688 91.3837756,78.4581446 92.1897107,77.5166983 C92.9949327,76.5759651 93.3979002,75.471192 93.3979002,74.2038055 C93.3979002,73.1211421 93.0441446,72.2125037 92.335207,71.4771771 C91.6262693,70.7411372 90.5293416,70.1448878 89.0437107,69.6848628 L87.1059002,69.1841845 C85.4034514,68.7854963 84.192409,68.3732569 83.4713466,67.9446135 C82.5234813,67.3840249 81.8238155,66.6850723 81.3716359,65.8484688 C80.9208828,65.0118653 80.694793,64.0055162 80.694793,62.8308479 C80.694793,60.7817756 81.3859002,58.9759102 82.7688279,57.4153915 C84.1517556,55.855586 85.8720349,54.9462344 87.9289526,54.6894763 C89.1171721,54.5411272 90.3410524,54.7600848 91.5977406,55.3463491 C92.8558554,55.9319002 93.5526683,56.2164738 93.6903192,56.1993566 C94.0098404,56.1594165 94.2837157,55.9632818 94.5119451,55.6130923 C94.741601,55.2614763 94.8899501,54.8007382 94.958419,54.2265985 L96.0731771,54.0882344 L96.0731771,62.4842244 L94.9241845,62.6282943 C94.4784239,60.4030574 93.5926085,58.656389 92.2667382,57.3875761 C90.941581,56.1194763 89.4716409,55.5852768 87.861197,55.786404 C86.7407332,55.9261945 85.7921546,56.401197 85.0147481,57.2128379 C84.2380549,58.0237656 83.8486384,58.942389 83.8486384,59.9672818 C83.8486384,61.6604589 85.7807431,63.0148579 89.6442394,64.0304788 L90.175586,64.1702693 C92.815202,64.8670823 94.6873965,65.7792868 95.7900299,66.9083092 C96.8926633,68.0373317 97.44398,69.557197 97.44398,71.4707581 C97.44398,73.6581945 96.6815511,75.6109825 95.1552668,77.3276958 C93.630409,79.0436958 91.7924489,80.0364938 89.6442394,80.3046633 C88.8432968,80.4052269 88.0523392,80.3702793 87.2699401,80.2033865 C86.4861147,80.0364938 85.71798,79.7405087 84.9641097,79.3168579 L84.5005187,79.028005 C83.8372269,78.6164788 83.3287032,78.4324688 82.9749476,78.4766883 C82.6083541,78.5230474 82.3173616,78.7334464 82.1005436,79.1128778 C81.8830125,79.4908828 81.7289576,80.0543242 81.6376658,80.8039152 L81.6376658,80.8039152 Z M107.419032,56.3163242 L107.419032,65.4726035 L108.969566,65.3599152 C110.612105,65.2400948 111.76395,64.7401297 112.424389,63.8557406 C113.084828,62.9734913 113.415047,61.4778753 113.415047,59.3688928 C113.415047,57.3647531 113.096953,55.9625686 112.458623,55.1630524 C111.821007,54.3628229 110.738344,54.0183392 109.210633,54.1303142 C108.486718,54.1830923 108.007436,54.3150374 107.772075,54.5282893 C107.536,54.7422544 107.419032,55.3370773 107.419032,56.3163242 L107.419032,56.3163242 Z M107.419032,66.5274514 L107.419032,74.9234414 C107.419032,75.7065536 107.548125,76.2357606 107.806309,76.5110623 C108.064494,76.7863641 108.533077,76.8990524 109.210633,76.8491272 L110.089317,76.7842244 L110.089317,77.8397855 L99.6471072,78.6000748 L99.6471072,77.5466534 L100.147072,77.5095661 C100.823915,77.4603541 101.292499,77.279197 101.551397,76.9675212 C101.809581,76.654419 101.938673,76.1066683 101.938673,75.3228429 L101.938673,56.7506733 C101.938673,55.9554364 101.813147,55.4240898 101.559955,55.1537805 C101.307476,54.8848978 100.83604,54.7636509 100.147072,54.7907531 L99.6471072,54.826414 L99.6471072,53.7901097 L110.416683,53.0055711 C113.312344,52.7937456 115.511192,53.2038454 117.01608,54.2351571 C118.521681,55.2657556 119.274125,56.8690673 119.274125,59.0458055 C119.274125,61.1768978 118.484594,62.8700748 116.904818,64.1253367 C115.325756,65.3813117 113.053446,66.1173516 110.089317,66.3327431 L107.419032,66.5274514 L107.419032,66.5274514 Z M129.851132,76.4297556 C131.164878,76.4012269 132.071377,75.7464938 132.572055,74.4612768 C133.073446,73.1789127 133.323786,70.2960898 133.323786,65.8149476 L133.323786,63.8971072 C133.323786,58.8532369 133.076299,55.6986783 132.581327,54.4377107 C132.085641,53.1753167 131.176289,52.5590973 129.851132,52.5876259 C128.538813,52.6168678 127.632314,53.2680349 127.130923,54.5389875 C126.629531,55.8120798 126.379905,59.1606334 126.379905,64.5846484 C126.379905,70.0100898 126.629531,73.3472319 127.130923,74.5975012 C127.632314,75.8484838 128.538813,76.4589975 129.851132,76.4297556 L129.851132,76.4297556 Z M129.851132,51.5342045 C132.569202,51.4742943 134.811556,52.6289925 136.579621,54.9982993 C138.345546,57.3668928 139.230648,60.4686733 139.230648,64.3050673 C139.230648,68.1400349 138.345546,71.283182 136.579621,73.7359352 C134.811556,76.1872618 132.569202,77.4425237 129.851132,77.5017207 C127.1459,77.5602045 124.906399,76.4019401 123.131915,74.0290673 C121.358145,71.6533416 120.471616,68.5501347 120.471616,64.7137406 C120.471616,60.8787731 121.358145,57.7377656 123.131915,55.2921446 C124.906399,52.8450973 127.1459,51.5941147 129.851132,51.5342045 L129.851132,51.5342045 Z M149.216399,55.5510424 L149.216399,63.4128329 L150.907436,63.4648978 C152.405192,63.5112569 153.437217,63.1717656 154.008504,62.4457107 C154.578364,61.7203691 154.862224,60.3153317 154.862224,58.2313117 C154.862224,56.3526983 154.62401,55.0582095 154.146868,54.3471322 C153.669012,53.6360549 152.802454,53.2601895 151.547192,53.2216758 C150.45383,53.1881546 149.791965,53.3001297 149.562309,53.557601 C149.331227,53.8157855 149.216399,54.4797905 149.216399,55.5510424 L149.216399,55.5510424 Z M170.324768,74.9234414 L170.324768,55.3827232 C170.324768,54.9569327 170.262005,54.6466833 170.135766,54.4519751 C170.010239,54.2565536 169.814818,54.1488579 169.550214,54.1260349 C168.619466,54.047581 167.679446,54.7308429 166.726589,56.1779601 C165.773731,57.6250773 165.113292,59.4951322 164.747411,61.7909776 L163.663322,61.6996858 L163.972858,52.6903292 L182.171302,54.2180399 L182.445177,63.2773217 L181.3618,63.1867431 C180.971671,60.81601 180.301247,58.8297007 179.355521,57.2299551 C178.408369,55.6294963 177.474768,54.7907531 176.558284,54.7144389 C176.282983,54.691616 176.083282,54.7636509 175.963461,54.9326833 C175.842214,55.1010025 175.782304,55.4041197 175.782304,55.8420349 L175.782304,75.3827531 C175.782304,76.1658653 175.91211,76.7150424 176.171007,77.0302843 C176.429192,77.344813 176.897062,77.5309626 177.573905,77.58802 L178.332055,77.6522095 L178.332055,78.7056309 L167.742209,77.8169626 L167.742209,76.7635411 L168.51819,76.8277307 C169.206444,76.884788 169.68002,76.7785187 169.937491,76.506783 C170.196389,76.2350474 170.324768,75.7065536 170.324768,74.9234414 L170.324768,74.9234414 Z M186.646738,79.5750424 L185.636823,79.4352519 L185.636823,69.8118155 L186.902783,69.9858404 C187.472643,72.8515461 188.403392,75.1609426 189.692888,76.9168828 C190.983097,78.6706833 192.470868,79.6634813 194.160479,79.8945636 C195.369382,80.0607431 196.37787,79.7783092 197.181666,79.0486883 C197.985461,78.3169277 198.388429,77.3184239 198.388429,76.0510374 C198.388429,74.9683741 198.034673,73.9663042 197.327162,73.0469676 C196.620364,72.1262045 195.52415,71.2411022 194.040658,70.3938005 L192.107127,69.3853117 C190.406105,68.5422893 189.195776,67.8126683 188.476853,67.1957357 C187.531127,66.3862344 186.832175,65.5046983 186.380708,64.5497007 C185.929242,63.5954165 185.705292,62.5312968 185.705292,61.3566284 C185.705292,59.3061297 186.394259,57.6814214 187.776474,56.4825037 C189.156549,55.2842993 190.874688,54.8249875 192.92804,55.105995 C194.114833,55.2686085 195.33586,55.8070873 196.589696,56.7228579 C197.846384,57.637202 198.541771,58.1036459 198.680848,58.1221895 C198.998229,58.166409 199.272818,58.0423092 199.501047,57.7513167 C199.72999,57.4603242 199.877626,57.0373865 199.946808,56.4825037 L201.058713,56.6337057 L201.058713,65.030409 L199.912574,64.8742145 C199.467526,62.5327232 198.583137,60.5535461 197.258693,58.9388229 C195.934963,57.3233865 194.468589,56.4061895 192.859571,56.1850923 C191.741247,56.0324638 190.794808,56.2592668 190.017401,56.8676409 C189.242135,57.4753017 188.854858,58.2912219 188.854858,59.3168279 C188.854858,61.0092918 190.782683,62.8693616 194.639761,64.8948978 L195.170394,65.1744788 C197.805731,66.5609726 199.675786,67.9631571 200.776993,69.3803192 C201.877486,70.7989077 202.42809,72.4628429 202.42809,74.3749776 C202.42809,76.5631272 201.665661,78.3169277 200.142229,79.6349526 C198.619511,80.9529776 196.785117,81.4636409 194.639761,81.1697955 C193.840244,81.0599601 193.051426,80.819606 192.269027,80.4473067 C191.487342,80.0757207 190.71992,79.5793217 189.96605,78.9588229 L189.503885,78.5487232 C188.84202,77.9631721 188.334923,77.6457905 187.981167,77.5965786 C187.614574,77.5480798 187.325007,77.6828778 187.108903,78.0045387 C186.892085,78.3261995 186.737317,78.850414 186.646738,79.5750424 L186.646738,79.5750424 Z" id="Fill-5" fill="#FFFFFF"></path>
                    <path d="M118.436808,13.4591172 C118.132264,13.8492469 117.981062,14.5824339 117.981062,15.6572519 L117.981062,40.4201446 C117.981062,41.496389 118.139397,42.2145985 118.457491,42.5761995 C118.77416,42.9378005 119.361137,43.0989875 120.217711,43.0590474 C122.191895,42.9684688 123.556279,42.1126085 124.308723,40.4964589 C125.060454,38.8803092 125.437032,34.9155362 125.437032,28.6035661 L125.437032,27.2448878 C125.437032,20.5335162 125.063307,16.426813 124.317995,14.9262045 C123.572683,13.4248828 122.177631,12.7216509 120.134978,12.8157955 C119.306933,12.8543092 118.740638,13.0682743 118.436808,13.4591172 L118.436808,13.4591172 Z M26.4082843,57.6257905 L26.4082843,81.2618005 C26.4082843,83.1418404 26.6757406,84.3507431 27.2113666,84.892788 C27.7462793,85.43198 28.7155411,85.4890374 30.1184389,85.0589676 L32.0448379,84.3136559 L32.0448379,86.7193367 L10.3173965,94.9270374 L10.3173965,92.5206434 L11.3515611,92.2032618 C12.7544589,91.7724788 13.7244339,91.1234514 14.2600599,90.2547531 C14.7949726,89.3853416 15.0624289,88.0116858 15.0624289,86.1316459 L15.0624289,41.5562993 C15.0624289,39.6484439 14.7949726,38.432409 14.2600599,37.9046284 C13.7244339,37.3789875 12.7544589,37.3297756 11.3515611,37.7598454 L10.3173965,38.0779401 L10.3173965,35.5060798 L47.8154913,22.5155461 L47.8154913,40.5834713 L45.6751272,41.394399 C44.961197,36.4432469 43.3379152,33.057606 40.8045686,31.2360499 C38.2719352,29.4144938 34.8641845,29.1598753 30.5827431,30.4721945 C28.8460599,31.0049676 27.7170374,31.6482893 27.1928229,32.4028728 C26.6700349,33.1581696 26.4082843,34.5582145 26.4082843,36.6030075 L26.4082843,54.9298304 C26.5751771,54.8806185 26.8126783,54.8214214 27.1215012,54.7543791 C27.4310374,54.6873367 27.6571272,54.6309925 27.7997706,54.5867731 C31.0106733,53.6025337 33.3899651,51.9485835 34.9355062,49.6220698 C36.4817606,47.2948429 37.3854065,44.0054863 37.6471571,39.7518603 L39.7875212,38.9402195 L39.7875212,65.2707631 L37.6471571,66.0809776 C37.5045137,62.14402 36.5887431,59.4330823 34.8991322,57.9460249 C33.2109476,56.4596808 30.7724589,56.2050623 27.5858055,57.1821696 C27.4666983,57.2192569 27.2762693,57.2912918 27.0152319,57.3982743 C26.7527681,57.5073965 26.5509277,57.5829975 26.4082843,57.6257905 L26.4082843,57.6257905 Z M58.4738055,24.0011771 L58.4738055,48.7654963 C58.4738055,49.8103591 58.6257207,50.4936209 58.9295511,50.8195611 C59.2333815,51.1433616 59.7896908,51.2168229 60.5999052,51.0392319 L61.1669127,50.914419 L61.1669127,52.3957706 L49.3624589,55.2486384 L49.3624589,53.7722793 L49.9294663,53.6474663 C50.7389676,53.4691621 51.29599,53.1517805 51.5998204,52.6924688 C51.9029377,52.2345835 52.0555661,51.4835661 52.0555661,50.4394165 L52.0555661,25.6750973 C52.0555661,24.6152569 51.9029377,23.9262893 51.5998204,23.6096209 C51.29599,23.2929526 50.7389676,23.2230574 49.9294663,23.4006484 L49.3624589,23.5261746 L49.3624589,22.097601 L61.1669127,19.2397406 L61.1669127,20.667601 L60.5999052,20.792414 C59.7896908,20.970005 59.2333815,21.2845337 58.9295511,21.736 C58.6257207,22.1867531 58.4738055,22.9413367 58.4738055,24.0011771 L58.4738055,24.0011771 Z M84.1011172,48.1614015 L62.3622643,52.1283142 L62.3622643,50.3352868 L62.9556608,50.2368628 C63.7737207,50.0999252 64.3321696,49.8189177 64.6324339,49.3938404 C64.9326983,48.9666234 65.0824738,48.2312968 65.0824738,47.1878603 L65.0824738,22.6646085 C65.0824738,21.6047681 64.9291322,20.9079551 64.6224489,20.575596 C64.3157656,20.2425237 63.7608828,20.1433865 62.9556608,20.2774713 L62.3622643,20.3758953 L62.3622643,18.9480349 L84.1824239,15.0267681 L84.3050973,25.1159352 L83.0990474,25.3163491 C82.4036608,22.3151322 81.3331222,20.2746185 79.8881446,19.194808 C78.4431671,18.1149975 76.3570075,17.8018953 73.6303791,18.2562145 C72.8123192,18.3938653 72.2667082,18.6606085 71.9942594,19.0592968 C71.7225237,19.457985 71.5848728,20.2025835 71.5848728,21.2930923 L71.5848728,31.4742643 L72.0762793,31.3936708 C73.8892768,31.0905536 75.2422494,30.3466683 76.135197,29.1613017 C77.0281446,27.9759352 77.5502195,26.2342594 77.699995,23.9362743 L78.9067581,23.7344339 L78.9067581,38.3632269 L77.699995,38.5643541 C77.6179751,36.3968878 77.1001796,34.8356559 76.1458953,33.8813716 C75.191611,32.9278005 73.8215212,32.5990075 72.0349127,32.8971322 L71.5848728,32.97202 L71.5848728,46.2863541 C71.5848728,47.3768628 71.7317955,48.0444339 72.0249277,48.2876409 C72.3187731,48.5301347 72.9078903,48.5779202 73.794419,48.4288579 C76.3163541,48.0094863 78.3818304,46.8854564 79.9908479,45.0581945 C81.5998653,43.2309327 82.6625586,40.7924439 83.1810673,37.742015 L84.4898204,37.5237706 L84.1011172,48.1614015 L84.1011172,48.1614015 Z M107.523875,45.3527531 L86.2871272,47.804793 L86.2871272,46.3533965 L86.884803,46.2899202 C87.709995,46.2021945 88.2734364,45.7307581 88.5758404,45.3235112 C88.8782444,44.9148379 89.0294464,44.1880698 89.0294464,43.1446334 L89.0294464,18.3803142 C89.0294464,17.321187 88.8753915,16.614389 88.5658554,16.2641995 C88.255606,15.9125835 87.6957307,15.7799252 86.884803,15.8655112 L86.2871272,15.9282743 L86.2871272,14.6202344 L98.4517556,13.1246185 L98.4517556,14.4326584 L97.72998,14.5089726 C96.9190524,14.5945586 96.3591771,14.845611 96.0503541,15.2621297 C95.740818,15.6786484 95.5860499,16.4175411 95.5860499,17.4759551 L95.5860499,42.0141845 C95.5860499,43.2737257 95.7158554,44.0974913 95.977606,44.4847681 C96.2386434,44.8706185 96.7264838,45.026813 97.4418404,44.9519252 C99.6000349,44.724409 101.492913,43.4948229 103.1219,41.2653067 C104.750888,39.0357905 105.935541,36.0381397 106.678,32.2744938 L108.038818,32.1311372 L107.523875,45.3527531 L107.523875,45.3527531 Z M119.326903,44.550384 L108.640773,45.263601 L108.640773,43.5946733 L109.240589,43.5668579 C110.055082,43.5290574 110.61781,43.3065337 110.928773,42.9014264 C111.239736,42.495606 111.394504,41.7702643 111.394504,40.7261147 L111.394504,15.9625087 C111.394504,14.9026683 111.239736,14.1873117 110.928773,13.8178653 C110.61781,13.448419 110.055082,13.2822394 109.240589,13.3200399 L108.640773,13.3478554 L108.640773,12.0555062 L118.871157,11.3337307 C120.735506,11.2481446 122.195461,11.2959302 123.251736,11.4770873 C124.308723,11.6582444 125.277985,11.9898903 126.160948,12.4713117 C128.164374,13.5454165 129.716334,15.4789476 130.821107,18.0458155 C131.925167,20.6126833 132.478623,23.7087581 132.478623,27.3333267 C132.478623,32.6011471 131.331771,36.7313865 129.040204,39.7247581 C126.749352,42.7181297 123.510633,44.356389 119.326903,44.550384 L119.326903,44.550384 Z M150.856085,26.6329476 L143.352329,26.4974364 L143.352329,39.9565536 C143.352329,41.0014165 143.50781,41.7217656 143.818773,42.1183142 C144.131162,42.5170025 144.69389,42.722409 145.50981,42.7366733 L145.944873,42.7445187 L145.944873,43.9263192 L134.004908,43.9712519 L134.004908,42.528414 L134.605436,42.5398254 C135.42207,42.5555162 135.984798,42.3693666 136.295047,41.982803 C136.60601,41.5969526 136.762204,40.881596 136.762204,39.8374464 L136.762204,14.9297706 C136.762204,13.8699302 136.60601,13.1453017 136.295047,12.7558853 C135.984798,12.3657556 135.42207,12.1639152 134.605436,12.1496509 L134.004908,12.1382394 L134.004908,10.8066633 L145.944873,10.7474663 L145.944873,12.3543441 L145.50981,12.3457855 C144.69389,12.3315212 144.131162,12.5126783 143.818773,12.8921097 C143.50781,13.2694015 143.352329,13.9883242 143.352329,15.0481646 L143.352329,24.1010274 L150.856085,24.2372519 L150.856085,15.1836758 C150.856085,14.1245486 150.69989,13.399207 150.389641,13.0105037 C150.078678,12.6203741 149.51595,12.4192469 148.701456,12.4035561 L148.266394,12.3957107 L148.266394,10.7474663 L160.204933,11.1632718 L160.204933,12.6118155 L159.604404,12.600404 C158.787771,12.5854264 158.225042,12.76801 157.913367,13.1467282 C157.60383,13.5247332 157.448349,14.2436559 157.448349,15.302783 L157.448349,40.2111721 C157.448349,41.2560349 157.60383,41.9414364 157.913367,42.3386983 C158.225042,42.7345337 158.787771,42.9413666 159.604404,42.9563441 L160.204933,42.9677556 L160.204933,44.3720798 L148.266394,43.9712519 L148.266394,42.7673416 L148.701456,42.7951571 C149.51595,42.8094214 150.078678,42.6232718 150.389641,42.2374214 C150.69989,41.8515711 150.856085,41.1362145 150.856085,40.0920648 L150.856085,26.6329476 L150.856085,26.6329476 Z M172.631312,43.7458753 C174.200389,43.8735411 175.285192,43.1132519 175.885721,41.4642943 C176.484823,39.8160499 176.784374,37.3083791 176.784374,31.3344738 L176.784374,28.777591 C176.784374,22.0505287 176.487676,17.81402 175.894279,16.0702045 C175.303736,14.3249626 174.21394,13.3877955 172.631312,13.2608429 C171.058668,13.1338903 169.973865,13.8870474 169.374763,15.5203142 C168.775661,17.1528678 168.47611,21.5862244 168.47611,28.8196708 C168.47611,36.0538304 168.775661,39.2304988 169.374763,40.9621895 C169.973865,42.6903142 171.058668,43.6203491 172.631312,43.7458753 L172.631312,43.7458753 Z M172.631312,11.8550923 C175.881441,12.1182693 178.564564,13.9405387 180.679252,17.321187 C182.79394,20.7018354 183.850928,24.9497556 183.850928,30.0635212 C183.850928,35.1772868 182.79394,37.952414 180.679252,40.9992768 C178.564564,44.0454264 175.881441,45.4369127 172.631312,45.1744489 C169.392594,44.9134115 166.713037,43.0882893 164.591217,39.6997955 C162.469397,36.3098753 161.409556,33.3621496 161.409556,28.2476708 C161.409556,23.133192 162.469397,19.0578703 164.591217,16.0202793 C166.713037,12.9812618 169.392594,11.5933416 172.631312,11.8550923 L172.631312,11.8550923 Z M187.785032,35.263586 L187.785032,17.607187 C187.785032,16.5473466 187.630264,15.8034613 187.322155,15.374818 C187.014045,14.9468878 186.457022,14.6744389 185.650374,14.5574713 L184.891511,14.4483491 L184.891511,13.1246185 L197.244429,14.7293566 L197.244429,16.2313915 L196.48414,16.1215561 C195.677491,16.0053017 195.120469,16.1172768 194.812359,16.4560549 C194.504249,16.7955461 194.350195,17.495212 194.350195,18.5550524 L194.350195,37.2021097 C194.350195,40.3046035 194.746743,42.472783 195.541267,43.7095012 C196.335077,44.944793 197.703027,45.7029426 199.645117,45.9818105 C201.628574,46.2692369 203.027192,45.9297456 203.840259,44.9640499 C204.655466,43.9997805 205.062,41.9107681 205.062,38.7012918 L205.062,22.0355511 C205.062,19.993611 204.840903,18.6748728 204.395142,18.0814763 C203.950808,17.4873666 203.099227,17.0915312 201.841825,16.8946833 L201.819002,15.4425736 L209.638,16.7506135 L209.638,18.0208529 C208.543212,17.8625187 207.795047,18.0729177 207.391367,18.6520499 C206.988399,19.231182 206.786559,20.4878703 206.786559,22.4228279 L206.786559,38.3047431 C206.786559,40.5007382 206.714524,42.0612569 206.569027,42.9862993 C206.427097,43.909202 206.190309,44.6616459 205.862943,45.2450574 C205.177541,46.4054613 204.183317,47.2292269 202.876703,47.7156409 C201.571516,48.2027681 200.01385,48.3161696 198.208698,48.0558454 C194.445766,47.5130873 191.769062,46.2785087 190.175022,44.3506833 C188.581696,42.4242843 187.785032,39.3952519 187.785032,35.263586 L187.785032,35.263586 Z M213.009377,50.5685087 L211.811172,50.319596 L211.811172,37.66998 L213.313207,37.9823691 C213.99005,41.8408728 215.093397,44.1146085 216.621107,46.5381197 C218.150958,48.9594913 219.915456,50.3823591 221.918883,50.7981646 C223.352449,51.0977157 224.547087,50.7860399 225.499945,49.8645636 C226.454229,48.9430873 226.930658,47.6364738 226.930658,45.9468628 C226.930658,44.5033117 226.511287,44.011192 225.673257,42.7380998 C224.834514,41.4650075 223.536459,40.2147382 221.776953,38.988005 L219.482534,37.5194913 C217.466983,36.2849127 216.033416,35.2329177 215.181122,34.3642195 C214.057092,33.2237855 213.227621,32.0027581 212.694135,30.7004239 C212.159222,29.398803 211.891766,28.314 211.891766,26.7477756 C211.891766,24.014015 212.711252,21.8929077 214.348085,20.3830274 C215.984918,18.8738603 218.021152,18.3738953 220.457501,18.8817057 C221.864678,19.1762643 223.311796,19.9729277 224.800993,21.2738354 C226.288763,22.5747431 227.113242,23.2423142 227.276569,23.2765486 C227.655287,23.3550025 227.9798,23.2073666 228.25011,22.8343541 C228.521845,22.4599152 228.697297,21.5569825 228.77789,20.8216559 L230.097342,21.0969576 L230.097342,32.2923242 L228.737237,32.0091771 C228.209456,28.8574713 227.161027,26.5117007 225.59195,24.2721995 C224.02216,22.0326983 222.28405,20.7139601 220.375481,20.315985 C219.050324,20.0392569 217.926294,20.2817506 217.006958,21.0420399 C216.086195,21.8023292 215.626883,22.8650224 215.626883,24.2322594 C215.626883,26.489591 217.91417,28.7454963 222.48589,31.6946484 L223.115661,32.1033217 C226.240978,34.1217257 228.457656,36.1123142 229.762843,38.0743741 C231.06803,40.0350075 231.71991,42.2909127 231.71991,44.8399501 C231.71991,47.7584339 230.818404,49.1798753 229.011825,50.8381047 C227.205247,52.4963342 225.030648,53.0604888 222.48589,52.5298554 C221.538738,52.3322943 220.602284,51.9592818 219.676529,51.4136708 C218.748633,50.8673466 217.838569,50.1548429 216.945621,49.277586 L216.398584,48.7034464 C215.614045,47.8789676 215.010663,47.4225087 214.592005,47.3354963 C214.159796,47.2456309 213.814599,47.4075312 213.556414,47.8219102 C213.300369,48.2362893 213.116359,49.6085187 213.009377,50.5685087 L213.009377,50.5685087 Z M270.392673,93.8600648 L232.514434,81.3459601 L232.514434,78.73202 L233.547885,79.0551072 C234.972893,79.4987282 235.946434,79.4616409 236.469935,78.9474115 C236.992723,78.4324688 237.253047,77.2342643 237.253047,75.3549377 L237.253047,30.7803042 C237.253047,28.8738753 236.987017,27.4909476 236.452105,26.6336608 C235.917192,25.7763741 234.949357,25.1301995 233.547885,24.6929975 L232.514434,24.3727631 L232.514434,21.801616 L270.53603,34.3599401 L270.750708,52.5462594 L268.647431,51.8929526 C267.434963,45.9040698 265.5699,41.3309227 263.052958,38.1685187 C260.534589,35.0082544 256.898608,32.689586 252.148584,31.2110873 C250.723576,30.7674663 249.773571,30.7895761 249.298569,31.2781297 C248.82214,31.7659701 248.585352,32.2602294 248.585352,34.2230025 L248.585352,52.5505387 L249.440499,52.8165686 C252.60005,53.7993815 254.957945,54.3307282 256.514185,52.9485137 C258.068284,51.5662993 258.978349,48.8710524 259.238673,44.8613466 L261.34195,45.5160798 L261.34195,71.8459102 L259.238673,71.1918903 C259.096743,67.2221247 258.19381,63.9769875 256.530589,61.4550524 C254.867367,58.9338304 252.481656,56.4575411 249.369177,55.4889925 L248.585352,55.2464988 L248.585352,79.212015 C248.585352,81.174788 248.83997,82.4978055 249.351347,83.1824938 C249.862723,83.8678953 250.889042,84.4484539 252.432444,84.9291621 C256.828713,86.2971122 260.428319,86.743586 263.231262,84.8100549 C266.033491,82.8765237 267.886429,79.3839002 268.789362,74.3286185 L271.069516,75.0375561 L270.392673,93.8600648 L270.392673,93.8600648 Z" id="Fill-6" fill="#FFFFFF"></path>
                </g>
            </g>
        </g>
    </g>
</svg>